{
	"asset":{
		"version":"2.0",
		"generator":"Created using the official Cinema 4D glTF Exporter 1.000x284978"
	},
	"images":[{
		"uri":"data:image/png;base64,"
	}],
	"scenes":[{
		"nodes":[0]
	}],
	"nodes":[{
		"name":"Subdivision Surface",
		"children":[1]
	},
	{
		"name":"Plane",
		"mesh":0
	}],
	"materials":[{
		"pbrMetallicRoughness":{
			"baseColorTexture":{
				"index":0
			},
			"baseColorFactor":[0.8,
			0.8,
			0.8,
			1.0],
			"metallicFactor":0.0,
			"roughnessFactor":0.33
		},
		"emissiveFactor":[0.0,
		0.0,
		0.0],
		"name":"Vanessa atalanta - C4D",
		"alphaMode":"BLEND",
		"doubleSided":false
	}],
	"meshes":[{
		"name":"Plane",
		"primitives":[{
			"attributes":{
				"POSITION":1,
				"NORMAL":2,
				"TEXCOORD_0":3
			},
			"indices":0,
			"material":0
		}]
	}],
	"accessors":[{
		"bufferView":0,
		"type":"SCALAR",
		"componentType":5123,
		"count":12096,
		"byteOffset":0,
		"min":[0],
		"max":[2185]
	},
	{
		"bufferView":1,
		"type":"VEC3",
		"componentType":5126,
		"count":2186,
		"byteOffset":0,
		"min":[-3.363436698913574,
		-0.010002702474594117,
		-2.620093584060669],
		"max":[3.3666069507598879,
		0.782036542892456,
		1.6465446949005128]
	},
	{
		"bufferView":1,
		"type":"VEC3",
		"componentType":5126,
		"count":2186,
		"byteOffset":12,
		"min":[-0.7608237862586975,
		-1.0,
		-0.9944490194320679],
		"max":[0.6825585961341858,
		1.0,
		0.9989880919456482]
	},
	{
		"bufferView":1,
		"type":"VEC2",
		"componentType":5126,
		"count":2186,
		"byteOffset":24,
		"min":[0.010247891768813134,
		0.18801367282867433],
		"max":[0.9835450649261475,
		0.811898946762085]
	}],
	"bufferViews":[{
		"buffer":0,
		"byteOffset":0,
		"byteLength":24192,
		"target":34963
	},
	{
		"buffer":0,
		"byteOffset":24192,
		"byteLength":69952,
		"target":34962,
		"byteStride":32
	}],
	"buffers":[{
		"uri":"data:application/octet-stream;base64,",
		"byteLength":94144
	}],
	"samplers":[{
		"magFilter":9729,
		"minFilter":9729,
		"wrapS":10497,
		"wrapT":10497
	}],
	"textures":[{
		"sampler":0,
		"source":0
	}]
}